<svg width="16" height="16" viewBox="0 0 16 16" fill="none" xmlns="http://www.w3.org/2000/svg">
<path d="M1.746 1.13551C-0.958998 3.58851 1.48 8.15351 4.662 11.3355C7.843 14.5165 12.415 16.9615 14.868 14.2565C15.038 14.0685 15.326 13.6565 15.73 13.0235C15.8722 12.7998 15.9197 12.5287 15.8622 12.27C15.8046 12.0112 15.6466 11.7859 15.423 11.6435L12.987 10.2435C12.7687 10.1185 12.5112 10.0803 12.266 10.1366C12.0208 10.193 11.8058 10.3397 11.664 10.5475C11.4773 10.829 11.2647 11.0925 11.029 11.3345C9.686 12.6715 7.989 11.4805 6.253 9.74451C4.516 8.00751 3.332 6.31751 4.669 4.97451C4.872 4.77051 5.134 4.55851 5.455 4.33951C5.66308 4.19765 5.80997 3.9825 5.86632 3.73706C5.92268 3.49161 5.88435 3.23393 5.759 3.01551L4.36 0.579513C4.21749 0.356039 3.99209 0.198282 3.73333 0.140904C3.47457 0.0835268 3.20362 0.131223 2.98 0.273513C2.346 0.677513 1.935 0.963513 1.746 1.13551Z" fill="white"/>
</svg>
