<svg width="16" height="13" viewBox="0 0 16 13" fill="none" xmlns="http://www.w3.org/2000/svg">
<path fill-rule="evenodd" clip-rule="evenodd" d="M14.5 0.50293C14.8978 0.50293 15.2794 0.660965 15.5607 0.94227C15.842 1.22357 16 1.6051 16 2.00293V11.0029C16 11.4008 15.842 11.7823 15.5607 12.0636C15.2794 12.3449 14.8978 12.5029 14.5 12.5029H1.5C1.10218 12.5029 0.720644 12.3449 0.43934 12.0636C0.158035 11.7823 0 11.4008 0 11.0029V2.00293C0 1.6051 0.158035 1.22357 0.43934 0.94227C0.720644 0.660965 1.10218 0.50293 1.5 0.50293H14.5ZM13.471 2.50293C13.544 2.50313 13.615 2.52611 13.6743 2.56868C13.7335 2.61125 13.778 2.67127 13.8015 2.74035C13.8249 2.80943 13.8262 2.88411 13.8052 2.95396C13.7841 3.02381 13.7417 3.08534 13.684 3.12993L8.61 7.03393C8.43514 7.16854 8.22067 7.24153 8 7.24153C7.77933 7.24153 7.56486 7.16854 7.39 7.03393L2.316 3.12993C2.25826 3.08534 2.2159 3.02381 2.19484 2.95396C2.17378 2.88411 2.17507 2.80943 2.19854 2.74035C2.22201 2.67127 2.26647 2.61125 2.32572 2.56868C2.38497 2.52611 2.45604 2.50313 2.529 2.50293H13.471Z" fill="white"/>
</svg>
