<svg width="10" height="16" viewBox="0 0 10 16" fill="none" xmlns="http://www.w3.org/2000/svg">
<path fill-rule="evenodd" clip-rule="evenodd" d="M1.77679 2.07273C1.52228 2.41824 1.42857 2.93789 1.42857 3.63636V10.9091C1.42857 11.845 1.73579 12.7572 2.31958 13.4259C2.89168 14.0812 3.76526 14.5455 5 14.5455C6.23474 14.5455 7.10832 14.0812 7.68042 13.4259C8.26421 12.7572 8.57143 11.845 8.57143 10.9091V3.63636H10V10.9091C10 12.155 9.59293 13.4246 8.74815 14.3923C7.89168 15.3733 6.6224 16 5 16C3.3776 16 2.10832 15.3733 1.25185 14.3923C0.40707 13.4246 0 12.155 0 10.9091V3.63636C0 2.88029 0.0848607 1.9454 0.633929 1.2C1.21659 0.408993 2.18624 0 3.57143 0C4.95662 0 5.92627 0.408993 6.50893 1.2C7.058 1.9454 7.14286 2.88029 7.14286 3.63636V10.1818C7.14286 10.7831 7.04914 11.4212 6.69731 11.9227C6.31117 12.4731 5.71185 12.7273 5 12.7273C4.28815 12.7273 3.68883 12.4731 3.30269 11.9227C2.95086 11.4212 2.85714 10.7831 2.85714 10.1818V3.63636H4.28571V10.1818C4.28571 10.6715 4.37057 10.9424 4.46517 11.0773C4.52546 11.1632 4.64042 11.2727 5 11.2727C5.35958 11.2727 5.47454 11.1632 5.53483 11.0773C5.62943 10.9424 5.71429 10.6715 5.71429 10.1818V3.63636C5.71429 2.93789 5.62057 2.41824 5.36607 2.07273C5.14516 1.77282 4.68624 1.45455 3.57143 1.45455C2.45662 1.45455 1.9977 1.77282 1.77679 2.07273Z" fill="black"/>
</svg>
