<svg width="16" height="17" viewBox="0 0 16 17" fill="none" xmlns="http://www.w3.org/2000/svg">
<path fill-rule="evenodd" clip-rule="evenodd" d="M16 8.00293C16 10.1247 15.1571 12.1595 13.6569 13.6598C12.1566 15.1601 10.1217 16.0029 8 16.0029C5.87827 16.0029 3.84344 15.1601 2.34315 13.6598C0.842855 12.1595 0 10.1247 0 8.00293C0 5.8812 0.842855 3.84637 2.34315 2.34608C3.84344 0.845785 5.87827 0.00292969 8 0.00292969C10.1217 0.00292969 12.1566 0.845785 13.6569 2.34608C15.1571 3.84637 16 5.8812 16 8.00293ZM12.018 11.0779C12.1705 10.861 12.2305 10.5923 12.1849 10.3311C12.1394 10.0699 11.9919 9.83745 11.775 9.68493L9 7.73293V4.00293C9 3.73771 8.89464 3.48336 8.70711 3.29582C8.51957 3.10829 8.26522 3.00293 8 3.00293C7.73478 3.00293 7.48043 3.10829 7.29289 3.29582C7.10536 3.48336 7 3.73771 7 4.00293V8.25293C7.00002 8.41337 7.03865 8.57145 7.11262 8.71382C7.18659 8.85619 7.29374 8.97868 7.425 9.07093L10.625 11.3209C10.842 11.4734 11.1106 11.5334 11.3718 11.4879C11.633 11.4423 11.8655 11.2948 12.018 11.0779Z" fill="white"/>
</svg>
