<svg width="16" height="16" viewBox="0 0 16 16" fill="none" xmlns="http://www.w3.org/2000/svg">
<path fill-rule="evenodd" clip-rule="evenodd" d="M10.385 14.087C10.749 13.527 11.113 12.807 11.375 11.884C11.978 12.116 12.393 12.393 12.647 12.611C11.9957 13.2582 11.2154 13.7611 10.357 14.087H10.385ZM3.345 12.604C3.73213 12.2976 4.16377 12.0521 4.625 11.876C4.895 12.807 5.244 13.527 5.615 14.087C4.76867 13.7543 4.00075 13.2493 3.36 12.604H3.345ZM11.855 7.273C11.8324 6.62434 11.7666 5.97791 11.658 5.338C12.458 5.048 13.04 4.698 13.448 4.378C14.0157 5.24745 14.3671 6.24007 14.473 7.273H11.855ZM4.676 3.913C4.25261 3.75703 3.8536 3.54153 3.491 3.273C4.10437 2.68655 4.8257 2.22468 5.615 1.913C5.20752 2.53205 4.88907 3.2053 4.669 3.913H4.676ZM10.386 1.913C11.176 2.223 11.896 2.685 12.509 3.273C12.24 3.476 11.855 3.709 11.324 3.913C11.107 3.20409 10.7884 2.53041 10.378 1.913H10.385H10.386ZM10.24 5.695C10.313 6.175 10.385 6.691 10.4 7.273H5.6C5.618 6.74465 5.66642 6.21778 5.745 5.695C7.229 5.962 8.749 5.962 10.233 5.695H10.24ZM8 4.436C7.35951 4.43825 6.71984 4.38976 6.087 4.291C6.67 2.5 7.571 1.78 8 1.527C8.415 1.782 9.324 2.509 9.905 4.291C9.36 4.378 8.727 4.436 8 4.436ZM2.545 4.378C2.96 4.698 3.542 5.055 4.342 5.338C4.23372 5.97795 4.16791 6.62436 4.145 7.273H1.498C1.61271 6.23743 1.97453 5.24457 2.553 4.378H2.545ZM1.505 8.728H4.145C4.175 9.353 4.218 9.928 4.305 10.451C3.635 10.681 3.011 11.026 2.458 11.469C1.93482 10.6393 1.60659 9.70182 1.498 8.727H1.505V8.728ZM8 9.89C7.127 9.89 6.378 9.963 5.724 10.079C5.66 9.63 5.619 9.179 5.6 8.726H10.4C10.378 9.214 10.342 9.672 10.284 10.079C9.53039 9.94312 8.76574 9.87784 8 9.884V9.891V9.89ZM8 14.472C7.564 14.21 6.604 13.432 6.022 11.49C6.67579 11.3836 7.33769 11.3351 8 11.345C8.764 11.345 9.418 11.396 9.985 11.491C9.404 13.455 8.444 14.211 8.007 14.473H8V14.472ZM13.542 11.461C12.99 11.0172 12.365 10.6727 11.695 10.443C11.767 9.933 11.84 9.352 11.855 8.726H14.502C14.3924 9.69841 14.0642 10.6334 13.542 11.461ZM8 0C5.87827 0 3.84344 0.842855 2.34315 2.34315C0.842855 3.84344 0 5.87827 0 8C0 10.1217 0.842855 12.1566 2.34315 13.6569C3.84344 15.1571 5.87827 16 8 16C10.1217 16 12.1566 15.1571 13.6569 13.6569C15.1571 12.1566 16 10.1217 16 8C16 5.87827 15.1571 3.84344 13.6569 2.34315C12.1566 0.842855 10.1217 0 8 0V0Z" fill="white"/>
</svg>
